<svg width="673" height="739" viewBox="0 0 673 739" fill="none" xmlns="http://www.w3.org/2000/svg">
<g clip-path="url(#clip0_1_2)">
<path d="M253.369 420.738C276.217 420.738 294.738 402.217 294.738 379.369C294.738 356.522 276.217 338 253.369 338C230.522 338 212 356.522 212 379.369C212 402.217 230.522 420.738 253.369 420.738Z" fill="#90CAF9"/>
<path d="M270.014 374.541C270.788 369.364 266.846 366.581 261.456 364.724L263.205 357.711L258.935 356.648L257.233 363.476C256.112 363.196 254.959 362.932 253.814 362.671L255.528 355.798L251.262 354.734L249.512 361.744C248.583 361.533 247.671 361.324 246.786 361.104L246.791 361.082L240.904 359.612L239.769 364.171C239.769 364.171 242.936 364.897 242.869 364.942C243.46 365.013 243.999 365.312 244.371 365.777C244.743 366.241 244.918 366.833 244.858 367.425L242.867 375.414C243.017 375.451 243.166 375.499 243.31 375.556L242.861 375.444L240.068 386.635C240.006 386.831 239.907 387.012 239.775 387.169C239.644 387.326 239.482 387.455 239.301 387.549C239.119 387.643 238.92 387.701 238.716 387.718C238.512 387.735 238.307 387.712 238.112 387.649C238.154 387.711 235.009 386.875 235.009 386.875L232.89 391.762L238.446 393.147C239.479 393.406 240.492 393.677 241.488 393.933L239.721 401.027L243.985 402.091L245.736 395.073C246.899 395.389 248.03 395.681 249.137 395.956L247.393 402.941L251.662 404.004L253.428 396.925C260.707 398.302 266.182 397.747 268.484 391.164C270.34 385.863 268.392 382.806 264.563 380.81C267.352 380.165 269.453 378.33 270.013 374.541L270.014 374.541ZM260.26 388.217C258.939 393.518 250.015 390.654 247.121 389.934L249.465 380.537C252.358 381.259 261.636 382.689 260.261 388.217H260.26ZM261.579 374.464C260.375 379.286 252.947 376.836 250.536 376.235L252.661 367.713C255.072 368.313 262.834 369.434 261.579 374.464V374.464Z" fill="#121212"/>
<path d="M368.369 536.738C391.217 536.738 409.738 518.217 409.738 495.369C409.738 472.522 391.217 454 368.369 454C345.522 454 327 472.522 327 495.369C327 518.217 345.522 536.738 368.369 536.738Z" fill="#90CAF9"/>
<path d="M368.365 522.634L385.112 499.049L368.365 508.937L351.628 499.049L368.364 522.634H368.365Z" fill="#121212"/>
<path d="M368.364 505.768H368.365L385.102 495.875L368.365 468.104H368.364L351.628 495.875L368.364 505.768Z" fill="#121212"/>
<path d="M467 149.804C420.38 142.364 367.29 138.394 312 138.394C261.4 138.394 212.65 141.714 169.02 147.974C169.03 147.304 169.04 146.634 169.07 145.964C170.226 107.074 186.549 70.1783 214.55 43.1639C242.55 16.1495 280.007 1.1592 318.914 1.39689C357.821 1.63458 395.091 17.0814 422.759 44.4359C450.428 71.7904 466.299 108.882 466.98 147.784C466.99 148.464 467 149.134 467 149.804Z" fill="#90CAF9"/>
<g opacity="0.1">
<path d="M337.55 1.3413C316.857 -1.45376 295.808 0.130395 275.766 5.99109C255.724 11.8518 237.138 21.8582 221.211 35.3619C205.284 48.8656 192.372 65.5652 183.312 84.3783C174.252 103.191 169.246 123.698 168.619 144.57C168.589 145.24 168.579 145.91 168.569 146.58C181.531 144.72 194.954 143.126 208.734 141.796C210.42 107.025 224.225 73.9407 247.755 48.2849C271.285 22.6291 303.054 6.02061 337.55 1.3413V1.3413Z" fill="white"/>
</g>
<path d="M532.18 161.624C510.72 155.806 488.953 151.186 466.98 147.784C430.966 142.203 394.658 138.714 358.24 137.334C343.07 136.714 327.62 136.394 312 136.394C299.62 136.394 287.34 136.594 275.23 136.994C239.706 138.044 204.266 141.038 169.07 145.964C143.016 149.552 117.214 154.782 91.8199 161.624C32.6099 177.994 3.05176e-05 199.934 3.05176e-05 223.394C3.05176e-05 246.854 32.6099 268.794 91.8199 285.164C133.46 296.684 184.8 304.534 240.74 308.134C263.83 309.634 287.7 310.394 312 310.394C336.38 310.394 360.33 309.624 383.49 308.124C434.4 304.834 481.5 298.024 520.92 288.124C521.13 288.064 521.33 288.014 521.54 287.964C524.2 287.304 526.82 286.614 529.41 285.924C530.34 285.664 531.26 285.414 532.18 285.164C532.232 285.143 532.285 285.126 532.34 285.114C533.22 284.874 534.09 284.624 534.96 284.384C536.7 283.884 538.42 283.394 540.11 282.884C540.19 282.864 540.26 282.844 540.33 282.824C541.8 282.384 543.24 281.944 544.67 281.504C545.84 281.134 547 280.774 548.15 280.404C548.99 280.134 549.82 279.864 550.64 279.594C551.24 279.394 551.83 279.204 552.41 279.004C553.2 278.744 553.99 278.474 554.77 278.204C555.1 278.094 555.43 277.984 555.75 277.864C556.5 277.614 557.23 277.354 557.96 277.094C558.75 276.814 559.54 276.524 560.32 276.244C560.97 276.014 561.62 275.774 562.26 275.534C562.8 275.324 563.33 275.124 563.87 274.924C565.34 274.374 566.78 273.804 568.2 273.244C568.91 272.954 569.62 272.674 570.32 272.384C571.01 272.104 571.71 271.814 572.39 271.524C573.51 271.054 574.61 270.584 575.69 270.114C576.21 269.874 576.74 269.644 577.25 269.424C577.64 269.244 578.02 269.074 578.41 268.894C578.69 268.774 578.97 268.644 579.24 268.514C580.25 268.054 581.25 267.584 582.23 267.114C585.99 265.314 589.5 263.474 592.76 261.594C613.21 249.884 624 236.894 624 223.394C624 199.934 591.39 177.994 532.18 161.624ZM531.64 283.244C489.95 294.774 438.47 302.624 382.38 306.194C359.57 307.644 335.99 308.394 312 308.394C288.09 308.394 264.59 307.654 241.85 306.204C185.67 302.644 134.11 294.794 92.3599 283.244C34.0899 267.124 2.00003 245.874 2.00003 223.394C2.00329 221.408 2.25191 219.429 2.74026 217.504C7.83987 197.224 39.21 178.244 92.3599 163.544C117.562 156.755 143.166 151.555 169.02 147.974C204.428 143.02 240.082 140.016 275.82 138.974C287.74 138.584 299.8 138.391 312 138.394C327.41 138.394 342.65 138.704 357.63 139.304C394.26 140.672 430.779 144.178 467 149.804C488.783 153.191 510.363 157.778 531.64 163.544C584.78 178.244 616.14 197.214 621.25 217.484C621.746 219.415 621.998 221.4 622 223.394C622 245.874 589.91 267.124 531.64 283.244V283.244Z" fill="#F5F5F5"/>
<path d="M623.43 224.304C623.43 237.664 612.42 250.304 592.76 261.594C589.49 263.474 585.97 265.314 582.23 267.114C581.25 267.584 580.25 268.054 579.24 268.514C578.97 268.644 578.69 268.774 578.41 268.894C578.02 269.074 577.64 269.244 577.25 269.424C576.74 269.644 576.21 269.874 575.69 270.114C574.61 270.584 573.51 271.054 572.39 271.524C571.71 271.814 571.01 272.104 570.32 272.384C569.62 272.674 568.91 272.954 568.2 273.244C566.78 273.804 565.34 274.374 563.87 274.924C563.33 275.124 562.8 275.324 562.26 275.534C561.62 275.774 560.97 276.014 560.32 276.244C559.54 276.524 558.75 276.814 557.96 277.094C557.23 277.354 556.5 277.614 555.75 277.864C555.43 277.984 555.1 278.094 554.77 278.204C553.99 278.474 553.2 278.744 552.41 279.004C551.83 279.204 551.24 279.394 550.64 279.594C549.82 279.864 548.99 280.134 548.15 280.404C547 280.774 545.84 281.134 544.67 281.504C543.24 281.944 541.8 282.384 540.33 282.824C540.26 282.844 540.19 282.864 540.11 282.884C538.42 283.394 536.7 283.884 534.96 284.384C534.09 284.624 533.22 284.874 532.34 285.114C532.285 285.126 532.232 285.143 532.18 285.164C531.26 285.414 530.34 285.664 529.41 285.924C526.83 286.604 524.2 287.294 521.54 287.964C521.33 288.014 521.13 288.064 520.92 288.124C482.57 297.704 435.52 304.684 383.45 308.054C360.64 309.524 336.86 310.304 312.43 310.304C287.78 310.304 263.8 309.514 240.81 308.014C103.57 299.064 1.43015 264.984 1.43015 224.304C1.44095 221.829 1.81825 219.369 2.54977 217.004C2.60983 217.174 2.66988 217.334 2.7402 217.504C17.0097 254.984 118.28 285.274 249.68 292.664C269.81 293.804 290.66 294.394 312 294.394C333.43 294.394 354.36 293.794 374.57 292.654C505.86 285.234 607.03 254.934 621.25 217.484C621.49 216.884 621.7 216.284 621.88 215.684C622.894 218.445 623.418 221.362 623.43 224.304V224.304Z" fill="#A2A2A2"/>
<path d="M91.6693 213.54C75.0266 213.54 57.3386 209.959 57.3386 203.323C57.3386 196.687 75.0266 193.106 91.6693 193.106C108.312 193.106 126 196.687 126 203.323C126 209.959 108.312 213.54 91.6693 213.54ZM91.6693 195.106C72.6163 195.106 59.3386 199.437 59.3386 203.323C59.3386 207.209 72.6163 211.54 91.6693 211.54C110.722 211.54 124 207.209 124 203.323C124 199.437 110.722 195.106 91.6693 195.106V195.106Z" fill="#F5F5F5"/>
<path d="M162.669 260.54C146.027 260.54 128.339 256.959 128.339 250.323C128.339 243.687 146.027 240.106 162.669 240.106C179.312 240.106 197 243.687 197 250.323C197 256.959 179.312 260.54 162.669 260.54ZM162.669 242.106C143.616 242.106 130.339 246.437 130.339 250.323C130.339 254.209 143.616 258.54 162.669 258.54C181.722 258.54 195 254.209 195 250.323C195 246.437 181.722 242.106 162.669 242.106V242.106Z" fill="#F5F5F5"/>
<path d="M531.669 213.54C515.027 213.54 497.339 209.959 497.339 203.323C497.339 196.687 515.027 193.106 531.669 193.106C548.312 193.106 566 196.687 566 203.323C566 209.959 548.312 213.54 531.669 213.54ZM531.669 195.106C512.616 195.106 499.339 199.437 499.339 203.323C499.339 207.209 512.616 211.54 531.669 211.54C550.722 211.54 564 207.209 564 203.323C564 199.437 550.722 195.106 531.669 195.106V195.106Z" fill="#F5F5F5"/>
<path d="M460.669 260.54C444.027 260.54 426.339 256.959 426.339 250.323C426.339 243.687 444.027 240.106 460.669 240.106C477.312 240.106 495 243.687 495 250.323C495 256.959 477.312 260.54 460.669 260.54ZM460.669 242.106C441.616 242.106 428.339 246.437 428.339 250.323C428.339 254.209 441.616 258.54 460.669 258.54C479.722 258.54 493 254.209 493 250.323C493 246.437 479.722 242.106 460.669 242.106V242.106Z" fill="#F5F5F5"/>
<path d="M311.669 282.54C295.027 282.54 277.339 278.959 277.339 272.323C277.339 265.687 295.027 262.106 311.669 262.106C328.312 262.106 346 265.687 346 272.323C346 278.959 328.312 282.54 311.669 282.54ZM311.669 264.106C292.616 264.106 279.339 268.437 279.339 272.323C279.339 276.209 292.616 280.54 311.669 280.54C330.722 280.54 344 276.209 344 272.323C344 268.437 330.722 264.106 311.669 264.106V264.106Z" fill="#F5F5F5"/>
<path d="M266 495.394C265.47 495.394 264.961 495.183 264.586 494.808C264.211 494.433 264 493.924 264 493.394V375.394C264 374.864 264.211 374.355 264.586 373.98C264.961 373.605 265.47 373.394 266 373.394C266.53 373.394 267.039 373.605 267.414 373.98C267.789 374.355 268 374.864 268 375.394V493.394C268 493.924 267.789 494.433 267.414 494.808C267.039 495.183 266.53 495.394 266 495.394Z" fill="#CCCCCC"/>
<path d="M236 601.394C235.47 601.394 234.961 601.183 234.586 600.808C234.211 600.433 234 599.924 234 599.394V513.394C234 512.864 234.211 512.355 234.586 511.98C234.961 511.605 235.47 511.394 236 511.394C236.53 511.394 237.039 511.605 237.414 511.98C237.789 512.355 238 512.864 238 513.394V599.394C238 599.924 237.789 600.433 237.414 600.808C237.039 601.183 236.53 601.394 236 601.394V601.394Z" fill="#CCCCCC"/>
<path d="M313 530.394C312.47 530.394 311.961 530.183 311.586 529.808C311.211 529.433 311 528.924 311 528.394V410.394C311 409.864 311.211 409.355 311.586 408.98C311.961 408.605 312.47 408.394 313 408.394C313.53 408.394 314.039 408.605 314.414 408.98C314.789 409.355 315 409.864 315 410.394V528.394C315 528.924 314.789 529.433 314.414 529.808C314.039 530.183 313.53 530.394 313 530.394Z" fill="#CCCCCC"/>
<path d="M284 615.394C283.47 615.394 282.961 615.183 282.586 614.808C282.211 614.433 282 613.924 282 613.394V565.394C282 564.864 282.211 564.355 282.586 563.98C282.961 563.605 283.47 563.394 284 563.394C284.53 563.394 285.039 563.605 285.414 563.98C285.789 564.355 286 564.864 286 565.394V613.394C286 613.924 285.789 614.433 285.414 614.808C285.039 615.183 284.53 615.394 284 615.394V615.394Z" fill="#CCCCCC"/>
<path d="M325 369.394C324.47 369.394 323.961 369.183 323.586 368.808C323.211 368.433 323 367.924 323 367.394V319.394C323 318.864 323.211 318.355 323.586 317.98C323.961 317.605 324.47 317.394 325 317.394C325.53 317.394 326.039 317.605 326.414 317.98C326.789 318.355 327 318.864 327 319.394V367.394C327 367.924 326.789 368.433 326.414 368.808C326.039 369.183 325.53 369.394 325 369.394V369.394Z" fill="#CCCCCC"/>
<path d="M225 390.394C224.47 390.394 223.961 390.183 223.586 389.808C223.211 389.433 223 388.924 223 388.394V340.394C223 339.864 223.211 339.355 223.586 338.98C223.961 338.605 224.47 338.394 225 338.394C225.53 338.394 226.039 338.605 226.414 338.98C226.789 339.355 227 339.864 227 340.394V388.394C227 388.924 226.789 389.433 226.414 389.808C226.039 390.183 225.53 390.394 225 390.394V390.394Z" fill="#CCCCCC"/>
<path d="M399 395.394C398.47 395.394 397.961 395.183 397.586 394.808C397.211 394.433 397 393.924 397 393.394V345.394C397 344.864 397.211 344.355 397.586 343.98C397.961 343.605 398.47 343.394 399 343.394C399.53 343.394 400.039 343.605 400.414 343.98C400.789 344.355 401 344.864 401 345.394V393.394C401 393.924 400.789 394.433 400.414 394.808C400.039 395.183 399.53 395.394 399 395.394Z" fill="#CCCCCC"/>
<path d="M395 545.394C394.47 545.394 393.961 545.183 393.586 544.808C393.211 544.433 393 543.924 393 543.394V485.394C393 484.864 393.211 484.355 393.586 483.98C393.961 483.605 394.47 483.394 395 483.394C395.53 483.394 396.039 483.605 396.414 483.98C396.789 484.355 397 484.864 397 485.394V543.394C397 543.924 396.789 544.433 396.414 544.808C396.039 545.183 395.53 545.394 395 545.394Z" fill="#CCCCCC"/>
<path d="M355 596.394C354.47 596.394 353.961 596.183 353.586 595.808C353.211 595.433 353 594.924 353 594.394V508.394C353 507.864 353.211 507.355 353.586 506.98C353.961 506.605 354.47 506.394 355 506.394C355.53 506.394 356.039 506.605 356.414 506.98C356.789 507.355 357 507.864 357 508.394V594.394C357 594.924 356.789 595.433 356.414 595.808C356.039 596.183 355.53 596.394 355 596.394Z" fill="#CCCCCC"/>
<path d="M363 449.394C362.47 449.394 361.961 449.183 361.586 448.808C361.211 448.433 361 447.924 361 447.394V329.394C361 328.864 361.211 328.355 361.586 327.98C361.961 327.605 362.47 327.394 363 327.394C363.53 327.394 364.039 327.605 364.414 327.98C364.789 328.355 365 328.864 365 329.394V447.394C365 447.924 364.789 448.433 364.414 448.808C364.039 449.183 363.53 449.394 363 449.394Z" fill="#CCCCCC"/>
</g>
<defs>
<clipPath id="clip0_1_2">
<rect width="672.531" height="738.394" fill="white"/>
</clipPath>
</defs>
</svg>
